<svg xmlns="http://www.w3.org/2000/svg" viewBox="0 0 1364.33 149.14"><defs><style>.cls-1{fill:#231f20;}</style></defs><title>rahlies-logo-outline-black</title><g id="Layer_2" data-name="Layer 2"><g id="Layer_1-2" data-name="Layer 1"><path class="cls-1" d="M135,146.37H86.91L61.77,109.54H44.2v36.83H0V2.77H65.86C78.7,2.77,90,4.94,99.56,9.23A51.16,51.16,0,0,1,122,28c5.26,8.1,7.93,17.72,7.93,28.58,0,10.46-2.5,19.74-7.41,27.57A49.57,49.57,0,0,1,104,101.24Zm-45.41-5h35.91l-28.85-42,2.61-1.27a45.26,45.26,0,0,0,19.07-16.6c4.41-7,6.65-15.4,6.65-24.91,0-9.88-2.4-18.58-7.12-25.86A46.24,46.24,0,0,0,97.5,13.79c-8.87-4-19.52-6-31.64-6H5v133.6H39.2V104.54H64.41ZM63.48,79.25H39.2V33.66H63.48c8.64,0,15.32,2,19.86,6h0c4.64,4.05,7,9.74,7,16.93S88,69.42,83.32,73.4,72.11,79.25,63.48,79.25Zm-19.28-5H63.48c7.41,0,13-1.56,16.59-4.65s5.27-7.29,5.27-13-1.73-10.06-5.28-13.16h0c-3.61-3.14-9.18-4.73-16.58-4.73H44.2Z"/><path class="cls-1" d="M379.51,146.37H333.19L322.3,119.44H267.07l-10.89,26.93H210.66L274.05,2.77h41.86Zm-42.95-5h35.27L312.66,7.77H277.31l-59,133.6h34.48l10.89-26.93h62ZM316.2,90.54h-43L294.68,37Zm-35.64-5h28.25L294.68,50.39Z"/><path class="cls-1" d="M598.22,146.37H554V92.32H505.56v54.05H461.35V2.77h44.21V54.85H554V2.77h44.2Zm-39.2-5h34.2V7.77H559V59.85H500.56V7.77H466.35v133.6h34.21V87.32H559Z"/><path class="cls-1" d="M808.52,146.37H698.18V2.77h44.2V110.29h66.14Zm-105.34-5H803.52V115.29H737.38V7.77h-34.2Z"/><path class="cls-1" d="M938,146.37H893.76V2.77H938Zm-39.21-5H933V7.77H898.76Z"/><path class="cls-1" d="M1154.1,146.37H1037.82V2.77h113.71v35.3h-69.9V56.43h61.58v34.3h-61.58v20.35h72.47Zm-111.28-5H1149.1V116.08h-72.47V85.73h61.58V61.43h-61.58V33.07h69.9V7.77H1042.82Z"/><path class="cls-1" d="M1300.45,149.14a130.87,130.87,0,0,1-33.3-4.24c-10.81-2.83-19.73-6.69-26.54-11.45l-1.69-1.19,14.91-33.48,2.46,1.62a80.73,80.73,0,0,0,20.94,9.6,80.06,80.06,0,0,0,23.42,3.65c13.32,0,20.07-3,20.07-8.78,0-1.86-.51-4.55-5-6.53-4.12-1.84-10.92-3.82-20.21-5.88a202.25,202.25,0,0,1-26.46-7.32,46.72,46.72,0,0,1-19-13.07c-5.41-6.12-8.15-14.4-8.15-24.62a42.45,42.45,0,0,1,7.36-24.28c4.87-7.17,12.2-12.89,21.77-17S1292.19,0,1305.8,0a122.13,122.13,0,0,1,27.49,3.13,85.62,85.62,0,0,1,24.07,9.29l1.87,1.11-14,33.67-2.43-1.32c-12.77-6.89-25.3-10.39-37.23-10.39-7.26,0-12.53,1-15.67,3.07-2.87,1.86-4.2,4-4.2,6.91,0,1.67.5,4.13,4.83,6,4,1.77,10.74,3.65,19.91,5.59a193.54,193.54,0,0,1,26.59,7.33,47.87,47.87,0,0,1,19,12.94c5.49,6.06,8.27,14.32,8.27,24.55a41.59,41.59,0,0,1-7.37,24c-4.87,7.1-12.22,12.82-21.85,17S1313.93,149.14,1300.45,149.14Zm-55.27-18.65c6.1,3.91,13.9,7.13,23.24,9.58h0a126.4,126.4,0,0,0,32,4.07c12.79,0,23.78-2,32.67-5.83s15.39-8.95,19.72-15.26a36.65,36.65,0,0,0,6.49-21.15c0-9-2.34-16.08-7-21.2a43.08,43.08,0,0,0-17-11.61A190.28,190.28,0,0,0,1309.44,62c-9.64-2-16.47-4-20.88-5.9-6.47-2.83-7.83-7.33-7.83-10.6,0-4.58,2.18-8.32,6.48-11.11,4-2.6,10-3.87,18.39-3.87,12,0,24.48,3.27,37.15,9.71l10.18-24.54A82.51,82.51,0,0,0,1332.16,8a117.36,117.36,0,0,0-26.36-3c-12.93,0-24,1.93-32.77,5.74s-15.28,8.87-19.61,15.24a37.53,37.53,0,0,0-6.5,21.47c0,9,2.32,16.13,6.9,21.31a41.6,41.6,0,0,0,17,11.68,194.74,194.74,0,0,0,25.79,7.13c9.77,2.17,16.7,4.2,21.19,6.2,6.54,2.92,7.91,7.65,7.91,11.1,0,9.14-8.43,13.78-25.07,13.78a85,85,0,0,1-24.89-3.87,88.6,88.6,0,0,1-19.74-8.64Z"/></g></g></svg>