<svg xmlns="http://www.w3.org/2000/svg" viewBox="0 0 308 134.71"><title>rahlies-illo-bubbles</title><g id="Layer_2" data-name="Layer 2"><g id="Layer_1-2" data-name="Layer 1"><path d="M74.15,134.71a27.86,27.86,0,1,0-27.86-27.86A27.89,27.89,0,0,0,74.15,134.71Zm0-46.71a18.86,18.86,0,1,1-18.86,18.85A18.88,18.88,0,0,1,74.15,88Z"/><path d="M27.85,55.71A27.86,27.86,0,1,0,0,27.85,27.89,27.89,0,0,0,27.85,55.71ZM27.85,9A18.86,18.86,0,1,1,9,27.85,18.88,18.88,0,0,1,27.85,9Z"/><path d="M177.15,134.71a27.86,27.86,0,1,0-27.86-27.86A27.89,27.89,0,0,0,177.15,134.71Zm0-46.71a18.86,18.86,0,1,1-18.86,18.85A18.88,18.88,0,0,1,177.15,88Z"/><path d="M130.85,55.71A27.86,27.86,0,1,0,103,27.85,27.89,27.89,0,0,0,130.85,55.71Zm0-46.71A18.86,18.86,0,1,1,112,27.85,18.88,18.88,0,0,1,130.85,9Z"/><path d="M280.15,134.71a27.86,27.86,0,1,0-27.86-27.86A27.89,27.89,0,0,0,280.15,134.71Zm0-46.71a18.86,18.86,0,1,1-18.86,18.85A18.88,18.88,0,0,1,280.15,88Z"/><path d="M233.85,55.71A27.86,27.86,0,1,0,206,27.85,27.89,27.89,0,0,0,233.85,55.71Zm0-46.71A18.86,18.86,0,1,1,215,27.85,18.88,18.88,0,0,1,233.85,9Z"/></g></g></svg>