<svg xmlns="http://www.w3.org/2000/svg" viewBox="0 0 279.38 188.9"><title>rahlies-illo-waves</title><g id="Layer_2" data-name="Layer 2"><g id="Layer_1-2" data-name="Layer 1"><path d="M258.75,92.07c-4.76,6-7.94,9.52-14.29,9.52s-9.52-3.57-14.29-9.52-9.92-12.7-20.63-12.7-15.88,6.75-20.64,12.7-7.94,9.52-14.29,9.52-9.52-3.57-14.28-9.52-9.92-12.7-20.64-12.7-15.87,6.75-20.63,12.7-7.94,9.52-14.29,9.52S95.24,98,90.48,92.07s-9.92-12.7-20.63-12.7S54,86.12,49.21,92.07s-7.94,9.52-14.29,9.52S25.4,98,20.64,92.07c-4-5-8.25-10.52-15.81-12.19A4,4,0,0,0,0,83.77H0a4,4,0,0,0,3.11,3.87c4.42,1,7.26,4.3,11.18,9.19,4.76,6,9.92,12.7,20.63,12.7s15.88-6.75,20.64-12.7,7.94-9.52,14.29-9.52,9.52,3.57,14.28,9.52,9.92,12.7,20.64,12.7,15.87-6.75,20.64-12.7,7.93-9.52,14.28-9.52,9.53,3.57,14.29,9.52,9.92,12.7,20.63,12.7,15.88-6.75,20.64-12.7,7.94-9.52,14.29-9.52,9.52,3.57,14.28,9.52,9.93,12.7,20.64,12.7,15.87-6.75,20.64-12.7c3.91-4.89,6.76-8.18,11.18-9.19a4,4,0,0,0,3.1-3.87h0a4,4,0,0,0-4.82-3.89C267,81.55,262.73,87.09,258.75,92.07Z"/><path d="M258.75,171.44c-4.76,5.95-7.94,9.52-14.29,9.52s-9.52-3.57-14.29-9.52-9.92-12.7-20.63-12.7-15.88,6.75-20.64,12.7S181,181,174.61,181s-9.52-3.57-14.28-9.52-9.92-12.7-20.64-12.7-15.87,6.75-20.63,12.7S111.12,181,104.77,181s-9.53-3.57-14.29-9.52-9.92-12.7-20.63-12.7S54,165.49,49.21,171.44,41.27,181,34.92,181s-9.52-3.57-14.28-9.52c-4-5-8.25-10.52-15.81-12.19A4,4,0,0,0,0,163.14H0A4,4,0,0,0,3.11,167c4.42,1,7.26,4.3,11.18,9.19,4.76,6,9.92,12.7,20.63,12.7s15.88-6.74,20.64-12.7,7.94-9.52,14.29-9.52,9.52,3.57,14.28,9.52,9.92,12.7,20.64,12.7,15.87-6.74,20.64-12.7,7.93-9.52,14.28-9.52,9.53,3.57,14.29,9.52,9.92,12.7,20.63,12.7,15.88-6.74,20.64-12.7,7.94-9.52,14.29-9.52,9.52,3.57,14.28,9.52,9.93,12.7,20.64,12.7,15.87-6.74,20.64-12.7c3.91-4.89,6.76-8.18,11.18-9.19a4,4,0,0,0,3.1-3.87h0a4,4,0,0,0-4.82-3.89C267,160.92,262.73,166.46,258.75,171.44Z"/><path d="M258.75,12.7c-4.76,5.95-7.94,9.52-14.29,9.52s-9.52-3.57-14.29-9.52S220.25,0,209.54,0,193.66,6.75,188.9,12.7s-7.94,9.52-14.29,9.52-9.52-3.57-14.28-9.52S150.41,0,139.69,0s-15.87,6.75-20.63,12.7-7.94,9.52-14.29,9.52-9.53-3.57-14.29-9.52S80.56,0,69.85,0,54,6.75,49.21,12.7s-7.94,9.52-14.29,9.52S25.4,18.65,20.64,12.7c-4-5-8.25-10.52-15.81-12.19A4,4,0,0,0,0,4.4H0A4,4,0,0,0,3.11,8.27c4.42,1,7.26,4.29,11.18,9.19,4.76,5.95,9.92,12.7,20.63,12.7s15.88-6.75,20.64-12.7S63.5,7.94,69.85,7.94s9.52,3.57,14.28,9.52,9.92,12.7,20.64,12.7,15.87-6.75,20.64-12.7,7.93-9.52,14.28-9.52,9.53,3.57,14.29,9.52,9.92,12.7,20.63,12.7,15.88-6.75,20.64-12.7,7.94-9.52,14.29-9.52,9.52,3.57,14.28,9.52,9.93,12.7,20.64,12.7,15.87-6.75,20.64-12.7c3.91-4.9,6.76-8.18,11.18-9.19a4,4,0,0,0,3.1-3.87h0A4,4,0,0,0,274.56.51C267,2.18,262.73,7.72,258.75,12.7Z"/></g></g></svg>