<svg xmlns="http://www.w3.org/2000/svg" viewBox="0 0 1359.33 144.14"><defs><style>.cls-1{fill:#231f20;}</style></defs><title>rahlies-logo-black</title><g id="Layer_2" data-name="Layer 2"><g id="Layer_1-2" data-name="Layer 1"><path class="cls-1" d="M60.59,104.54H39.2v36.83H0V2.77H63.36Q82.17,2.77,96,9t21.38,17.82q7.53,11.58,7.53,27.22,0,15.06-7,26.24a47.54,47.54,0,0,1-20.1,17.52l29.9,43.56h-42ZM79.2,39Q73.07,33.66,61,33.66H39.2V74.25H61q12.08,0,18.22-5.25t6.14-15Q85.34,44.36,79.2,39Z"/><path class="cls-1" d="M321.49,114.44H262.88L252,141.37H212L273.18,2.77h38.61l61.38,138.6H332.38ZM310,85.54,292.19,41.18,274.37,85.54Z"/><path class="cls-1" d="M593.22,2.77v138.6H554V87.32H500.56v54.05H461.35V2.77h39.21V54.85H554V2.77Z"/><path class="cls-1" d="M698.18,2.77h39.21V110.29h66.13v31.08H698.18Z"/><path class="cls-1" d="M893.76,2.77H933v138.6H893.76Z"/><path class="cls-1" d="M1149.1,111.08v30.29H1037.82V2.77h108.71v30.3h-69.9V56.43h61.58v29.3h-61.58v25.35Z"/><path class="cls-1" d="M1265.28,140q-15.84-4.15-25.74-11.08L1252.41,100a83.47,83.47,0,0,0,21.59,9.9,82,82,0,0,0,24.15,3.76q22.57,0,22.57-11.28,0-5.94-6.43-8.82t-20.69-6a199.16,199.16,0,0,1-26.14-7.23,44,44,0,0,1-18-12.38q-7.51-8.5-7.52-23a39.76,39.76,0,0,1,6.93-22.87q6.93-10.2,20.69-16.14T1303.3,0a118.9,118.9,0,0,1,26.93,3.07,82.58,82.58,0,0,1,23.36,9l-12.08,29.1q-19.8-10.68-38.41-10.69-11.68,0-17,3.47t-5.34,9q0,5.53,6.33,8.31t20.4,5.74a192.35,192.35,0,0,1,26.23,7.23,45.26,45.26,0,0,1,18,12.28q7.62,8.41,7.62,22.87A39,39,0,0,1,1352.4,122q-6.93,10.09-20.79,16.13t-33.66,6A127.78,127.78,0,0,1,1265.28,140Z"/></g></g></svg>