<svg xmlns="http://www.w3.org/2000/svg" viewBox="0 0 397.96 701.9"><defs><style>.cls-1{fill:none;stroke:#000;stroke-miterlimit:10;stroke-width:7px;}</style></defs><title>rahlies-seasonal-treatment</title><g id="Layer_2" data-name="Layer 2"><g id="Layer_1-2" data-name="Layer 1"><path class="cls-1" d="M64.17,11.57c28.76-16.16,62.21-4.07,79,2,20.15,7.29,47.67,17.24,53,42,4.87,22.69-10.19,51.74-34,58-13.43,3.53-23.64-7.89-29-3-8.13,7.41,13.47,32.32,4,48-7.73,12.8-31.31,11.44-39,11-2.71-.15-36.59-2.59-57-28C11.44,104.58,23,34.72,64.17,11.57Z"/><path class="cls-1" d="M200.17,169.57c-9.92-19.94,10-36.68,52-115,11.46-21.35,16-31.21,26-33,18.59-3.31,37.69,24.33,53,47,6.1,9,59.48,88.07,40,107-12.19,11.84-52.61-.06-71-25-13.68-18.55-10.3-37.68-18-39-15.5-2.64-30.51,74.57-59,75C213.3,186.72,204.18,177.63,200.17,169.57Z"/><path class="cls-1" d="M41.17,206.57c15.33-9.58,39-14,47-5,10.34,11.65-12,38.09-1,51,8.2,9.67,32.72,9,44-3,18.54-19.72-7.09-61.11,7-71,9.07-6.37,29.44,4,42,16,42.21,40.49,34.87,137.62-4,155-22.92,10.25-55.33-7.89-59-10-27-15.51-29.08-35.93-45-37-26.65-1.79-41,54-54,51C.65,349.49-10.58,238.92,41.17,206.57Z"/><path class="cls-1" d="M269.17,191.57c14.46-8.22,40.1-14.67,52-3,22.54,22.14-24.58,89.57-5,106,16.09,13.5,57.76-23.81,73-10,10.5,9.52,4.78,40-12,56-30.27,28.83-107.52,21-136-28C217.51,271.88,232.94,212.17,269.17,191.57Z"/><path class="cls-1" d="M76.17,366.57c14.7-9.41,38.59-11.45,48-1,7.07,7.86,3,19.55,1,35-7.92,59.52,24.88,88.66,9,107-11.62,13.41-41,11.58-59,0C33.26,480.55,38.57,390.62,76.17,366.57Z"/><path class="cls-1" d="M210.17,390.57c34.76-25.45,93.12-24,111,2,6.25,9.09,8.76,23.55,3,33-13.1,21.49-74.42,1.19-75,4-.55,2.61,53.19,8.61,58,31,2.25,10.5-7.2,20.16-9,22-17.86,18.25-58.6,1.42-59,3-.58,2.26,84.35,16.52,86,40,.81,11.59-18.94,21.47-26,25-29.75,14.88-76.29,16-105-11C153.13,501,166.85,422.29,210.17,390.57Z"/><path class="cls-1" d="M230.81,685.64c8.27,1.15,27.55-32.38,21-66-.9-4.6-8.39-40.36-35-47-23.29-5.81-48.47,13.85-58,33-8,16.11-4.88,31.66-11,33-5.9,1.28-14.1-12-18-21-12.62-29.1,14-53.37,3-68-6.51-8.67-22.39-10.08-33-6-28.07,10.78-44.07,69.38-21,110,20.69,36.44,70.27,53.89,98,40,22.55-11.31,28.49-42.27,39-40C225.82,655.8,223.38,684.61,230.81,685.64Z"/></g></g></svg>